<svg width="30" height="30" viewBox="0 0 30 30" fill="none" xmlns="http://www.w3.org/2000/svg">
<path d="M23.6045 22.0172L22.3448 7.8319C22.3178 7.51697 22.0524 7.27853 21.7419 7.27853H19.1505C19.1145 4.91207 17.18 3 14.8045 3C12.429 3 10.4945 4.91207 10.4585 7.27853H7.86708C7.55215 7.27853 7.29121 7.51697 7.26421 7.8319L6.0045 22.0172C6.0045 22.0352 6 22.0532 6 22.0712C6 23.6863 7.48016 25 9.30225 25H20.3068C22.1288 25 23.609 23.6863 23.609 22.0712C23.609 22.0532 23.609 22.0352 23.6045 22.0172ZM14.8045 4.21472C16.5096 4.21472 17.8998 5.58241 17.9358 7.27853H11.6732C11.7092 5.58241 13.0994 4.21472 14.8045 4.21472ZM20.3068 23.7853H9.30225C8.15951 23.7853 7.23272 23.0294 7.21472 22.0982L8.42045 8.49775H10.454V10.3423C10.454 10.6798 10.7239 10.9497 11.0614 10.9497C11.3988 10.9497 11.6687 10.6798 11.6687 10.3423V8.49775H17.9358V10.3423C17.9358 10.6798 18.2057 10.9497 18.5432 10.9497C18.8806 10.9497 19.1505 10.6798 19.1505 10.3423V8.49775H21.1841L22.3943 22.0982C22.3763 23.0294 21.445 23.7853 20.3068 23.7853Z" fill="#6B422B"/>
<circle cx="23" cy="7" r="7" fill="#F9A82F"/>
<path d="M20.9111 11H19.5V5.56055L17.8154 6.08301V4.93555L20.7598 3.88086H20.9111V11ZM28.0107 8.06055C28.0107 9.04362 27.8073 9.79557 27.4004 10.3164C26.9935 10.8372 26.3978 11.0977 25.6133 11.0977C24.8385 11.0977 24.2461 10.8421 23.8359 10.3311C23.4258 9.81999 23.2158 9.08757 23.2061 8.13379V6.8252C23.2061 5.83236 23.4111 5.07878 23.8213 4.56445C24.2347 4.05013 24.8288 3.79297 25.6035 3.79297C26.3783 3.79297 26.9707 4.0485 27.3809 4.55957C27.791 5.06738 28.001 5.79818 28.0107 6.75195V8.06055ZM26.5996 6.625C26.5996 6.03581 26.5182 5.60775 26.3555 5.34082C26.196 5.07064 25.9453 4.93555 25.6035 4.93555C25.2715 4.93555 25.0257 5.06413 24.8662 5.32129C24.71 5.5752 24.627 5.97396 24.6172 6.51758V8.24609C24.6172 8.82552 24.6953 9.25684 24.8516 9.54004C25.0111 9.81999 25.265 9.95996 25.6133 9.95996C25.9583 9.95996 26.2074 9.82487 26.3604 9.55469C26.5133 9.28451 26.5931 8.87109 26.5996 8.31445V6.625Z" fill="white"/>
</svg>
